<svg width="39" height="64" viewBox="0 0 39 64" fill="none" xmlns="http://www.w3.org/2000/svg">
<path d="M16.125 19.5H38V7H25.5V0.75H13V7.3125C9.20264 8.08358 5.82725 10.2381 3.5291 13.3579C1.23094 16.4777 0.173977 20.3401 0.563395 24.1953C0.952812 28.0505 2.76083 31.6236 5.63645 34.2207C8.51208 36.8179 12.2501 38.2539 16.125 38.25H22.375C23.2038 38.25 23.9987 38.5792 24.5847 39.1653C25.1708 39.7513 25.5 40.5462 25.5 41.375C25.5 42.2038 25.1708 42.9987 24.5847 43.5847C23.9987 44.1708 23.2038 44.5 22.375 44.5H0.499993V57H13V63.25H25.5V56.6875C29.2973 55.9164 32.6727 53.7619 34.9709 50.6421C37.269 47.5223 38.326 43.6599 37.9366 39.8047C37.5472 35.9495 35.7392 32.3765 32.8635 29.7793C29.9879 27.1821 26.2498 25.7461 22.375 25.75H16.125C15.2962 25.75 14.5013 25.4208 13.9153 24.8347C13.3292 24.2487 13 23.4538 13 22.625C13 21.7962 13.3292 21.0013 13.9153 20.4153C14.5013 19.8292 15.2962 19.5 16.125 19.5Z" fill="#959595"/>
</svg>
