<svg width="176" height="150" viewBox="0 0 176 150" fill="none" xmlns="http://www.w3.org/2000/svg">
<path d="M169.25 56.25H156.625C156.445 51.3121 155.254 46.4635 153.126 42.0043C150.997 37.545 147.976 33.57 144.25 30.325V6.25C144.25 5.0893 143.927 3.95153 143.317 2.96418C142.706 1.97683 141.833 1.17891 140.795 0.659828C139.757 0.140748 138.595 -0.0789838 137.439 0.0252535C136.283 0.129491 135.179 0.553578 134.25 1.25L110.919 18.75H81.75C47.3125 18.75 22.6063 39.0062 19.575 68.75H19.25C17.5924 68.75 16.0027 68.0915 14.8306 66.9194C13.6585 65.7473 13 64.1576 13 62.5V50H0.5V62.5C0.504964 67.4713 2.482 72.2375 5.99723 75.7528C9.51246 79.268 14.2787 81.245 19.25 81.25H19.6875C20.5939 89.4454 23.2574 97.3489 27.4963 104.421C31.7352 111.494 37.4497 117.568 44.25 122.231V143.75C44.25 145.408 44.9085 146.997 46.0806 148.169C47.2527 149.342 48.8424 150 50.5 150H75.5C77.1576 150 78.7473 149.342 79.9194 148.169C81.0915 146.997 81.75 145.408 81.75 143.75V131.25H100.5V143.75C100.5 145.408 101.158 146.997 102.331 148.169C103.503 149.342 105.092 150 106.75 150H131.75C133.408 150 134.997 149.342 136.169 148.169C137.342 146.997 138 145.408 138 143.75V122.731C142.515 120.591 146.462 117.418 149.523 113.469C152.584 109.52 154.672 104.906 155.619 100H169.25C170.908 100 172.497 99.3415 173.669 98.1694C174.842 96.9973 175.5 95.4076 175.5 93.75V62.5C175.5 60.8424 174.842 59.2527 173.669 58.0806C172.497 56.9085 170.908 56.25 169.25 56.25ZM163 87.5H145.025C143.119 104.706 139.875 109.281 125.5 114.469V137.5H113V118.75H69.25V137.5H56.75V114.862C49.2244 111.282 42.8754 105.631 38.4475 98.5703C34.0196 91.51 31.6963 83.3337 31.75 75C31.75 44.7812 56.8625 31.25 81.75 31.25H115.081L131.75 18.75V36.1C146.863 47.725 143.706 56.0125 144.363 68.75H163V87.5Z" fill="#959595"/>
</svg>
